<?xml version="1.0" encoding="utf-8"?>
<svg version="1.0" xmlns="http://www.w3.org/2000/svg" width="4002.000000pt" height="996.000000pt" viewBox="0 0 4002.000000 996.000000" preserveAspectRatio="xMidYMid meet">
  <g transform="matrix(0.319404, 0, 0, -0.298089, -111.505974, 2991.878906)" fill="#000000" stroke="none" style="">
    <path d="M5377 9920 c-9 -22 -17 -54 -17 -71 0 -17 -4 -38 -9 -48 -5 -9 -14 -46 -20 -82 -5 -35 -14 -82 -20 -104 -5 -22 -17 -76 -26 -120 -9 -44 -23 -105 -30 -135 -8 -30 -16 -73 -19 -95 -3 -22 -12 -71 -21 -110 -9 -38 -22 -101 -30 -140 -8 -38 -21 -99 -29 -135 -8 -36 -20 -90 -26 -120 -6 -30 -18 -88 -26 -127 -20 -97 -40 -97 -88 0 -12 23 -33 60 -47 82 -14 22 -42 70 -62 107 -50 94 -60 111 -73 128 -6 8 -29 47 -49 85 -49 90 -60 109 -100 175 -18 30 -46 80 -61 110 -14 30 -29 57 -33 60 -3 3 -16 25 -29 50 -13 25 -39 70 -57 100 -19 30 -41 69 -49 85 -19 38 -73 133 -94 165 -9 14 -27 45 -40 70 -40 78 -27 75 -315 74 l-258 -1 -92 -87 c-51 -48 -165 -158 -254 -244 -216 -210 -450 -435 -668 -643 -338 -322 -486 -464 -638 -610 -84 -80 -231 -221 -327 -313 -96 -92 -245 -234 -330 -316 -85 -82 -234 -224 -330 -316 -96 -92 -246 -235 -332 -318 -86 -83 -184 -175 -217 -205 -45 -40 -58 -57 -51 -66 8 -10 1313 -13 6138 -14 3370 -1 6135 1 6145 5 16 6 17 43 17 528 0 393 -3 525 -12 534 -9 9 -251 12 -1026 12 l-1014 0 -32 33 c-17 18 -49 55 -71 81 -22 26 -59 68 -81 94 -23 26 -63 72 -88 102 -92 109 -116 137 -208 240 -51 58 -111 128 -133 155 -22 27 -62 74 -90 105 -27 31 -68 78 -90 105 -22 26 -71 84 -110 128 -38 43 -77 90 -86 104 -9 13 -31 38 -49 56 -46 45 -62 97 -29 97 5 0 28 12 52 27 23 15 101 56 172 92 72 35 137 70 145 76 8 7 87 50 175 95 88 45 221 114 295 152 74 39 194 101 265 137 72 36 141 74 155 83 14 9 59 34 100 55 43 22 76 46 78 56 3 16 -21 17 -377 17 -299 0 -381 -3 -381 -13 0 -6 -23 -23 -51 -35 -28 -13 -70 -37 -94 -53 -23 -16 -46 -29 -50 -29 -12 0 -199 -93 -270 -134 -38 -23 -146 -79 -238 -126 -435 -220 -505 -256 -518 -267 -8 -6 -100 -55 -204 -108 -105 -53 -220 -112 -258 -131 -73 -38 -93 -37 -82 5 3 14 12 58 19 96 8 39 17 81 20 95 6 25 31 138 46 215 4 22 13 56 19 75 6 19 11 54 11 77 0 23 4 44 9 48 5 3 13 31 17 63 3 31 10 62 15 68 5 6 12 43 15 82 l7 72 -275 0 -275 0 -12 -57 c-7 -32 -17 -76 -22 -98 -11 -45 -36 -164 -49 -239 -9 -45 -33 -86 -51 -86 -4 0 -10 18 -14 40 -4 22 -22 62 -41 88 -19 26 -38 57 -43 69 -6 11 -22 29 -36 40 -15 10 -42 30 -60 46 -18 15 -58 39 -89 53 -30 14 -58 30 -61 35 -4 5 -16 9 -29 9 -12 0 -26 4 -32 9 -17 16 -148 44 -227 48 -63 4 -80 8 -90 24 -12 19 -36 19 -997 19 l-985 0 -18 -40z m1960 -350 c102 -24 191 -76 225 -130 25 -42 25 -169 1 -208 -52 -79 -155 -142 -270 -164 -24 -4 -62 -11 -85 -15 -24 -5 -360 -6 -748 -3 -670 5 -705 6 -708 23 -2 10 0 26 4 35 8 18 25 94 67 300 14 67 32 134 41 147 l15 24 705 1 c485 0 719 -3 753 -10z m-3350 -267 c7 -16 28 -57 49 -93 20 -36 45 -83 57 -105 11 -22 30 -53 41 -70 12 -16 32 -52 45 -80 14 -27 27 -52 30 -55 7 -6 19 -27 69 -122 21 -40 50 -91 63 -113 34 -54 52 -102 44 -114 -4 -8 -200 -11 -626 -11 -598 0 -619 1 -619 19 0 10 20 36 45 57 25 22 110 102 189 179 186 180 435 419 506 484 63 58 90 64 107 24z m4035 -335 c-14 -47 -43 -173 -53 -232 -5 -28 -15 -85 -23 -126 -9 -41 -20 -102 -26 -135 -6 -33 -15 -68 -20 -77 -6 -10 -13 -43 -16 -75 -4 -32 -11 -67 -17 -77 -5 -11 -13 -45 -18 -75 -11 -79 -39 -195 -48 -204 -15 -15 -36 4 -76 69 -22 36 -48 78 -57 92 -10 15 -22 36 -28 47 -6 11 -19 34 -30 50 -11 17 -23 37 -27 45 -4 8 -26 42 -50 76 -24 34 -43 64 -43 67 0 3 -13 26 -30 50 -16 25 -30 48 -30 52 0 4 -13 24 -30 45 -16 21 -30 41 -30 45 0 4 -10 21 -22 37 -27 39 -15 62 33 65 75 4 205 23 224 32 11 5 34 12 50 14 92 15 245 109 295 182 17 25 35 45 39 45 5 0 11 10 15 22 4 17 8 20 17 11 8 -8 8 -21 1 -45z m1261 -193 c53 -60 114 -130 136 -155 44 -49 110 -126 181 -210 25 -29 60 -68 78 -87 17 -18 32 -37 32 -41 0 -4 20 -28 45 -52 25 -24 45 -48 45 -53 0 -5 18 -27 39 -50 122 -131 202 -229 197 -242 -5 -13 -116 -15 -834 -15 -652 0 -832 3 -840 13 -7 8 -7 27 -1 57 5 25 15 77 23 116 7 39 16 76 19 81 4 5 11 34 16 64 49 269 63 323 85 341 12 10 86 50 166 90 80 39 155 79 167 88 20 15 289 151 323 163 8 3 18 5 22 4 3 -1 49 -51 101 -112z m-2587 -112 c17 -19 105 -154 184 -282 25 -40 64 -100 88 -132 23 -33 42 -63 42 -69 0 -5 34 -59 75 -121 41 -61 75 -114 75 -117 0 -3 7 -13 16 -23 9 -10 14 -25 11 -34 -6 -13 -99 -15 -835 -15 -568 0 -831 3 -839 11 -10 10 -10 16 22 159 9 41 25 118 35 170 11 52 26 124 35 160 8 36 20 92 26 124 5 33 13 64 16 69 3 6 7 25 9 44 1 19 10 43 20 54 16 18 37 19 511 19 457 0 494 -1 509 -17z m-2021 -588 c12 -22 38 -71 59 -108 21 -38 35 -75 32 -83 -5 -12 -177 -14 -1165 -14 -860 0 -1162 3 -1167 11 -7 11 96 116 197 201 l44 37 989 -2 989 -2 22 -40z m-2013 -491 c20 -33 58 -86 84 -118 l47 -60 34 40 c19 21 66 85 104 142 39 56 72 102 74 102 17 0 105 -65 105 -77 0 -8 -14 -34 -31 -57 l-30 -43 4 -229 c3 -126 6 -240 8 -254 4 -25 3 -25 -66 -25 l-70 0 -3 153 c-3 178 -7 183 -74 92 -23 -33 -48 -60 -55 -60 -10 0 -34 28 -97 115 -7 11 -18 17 -22 12 -4 -4 -7 -68 -5 -142 3 -166 -1 -175 -73 -175 -40 0 -55 4 -60 16 -3 9 -6 127 -6 263 l0 248 -25 38 c-14 20 -23 44 -20 53 3 10 26 29 52 44 l48 28 20 -24 c11 -13 37 -50 57 -82z m1379 61 c79 -53 134 -116 175 -200 56 -118 42 -295 -29 -366 -55 -55 -108 -71 -263 -76 -105 -4 -143 -3 -149 7 -4 6 -8 156 -8 333 l-1 322 82 0 c51 0 86 5 94 13 18 18 24 16 99 -33z m3520 35 c10 -6 19 -15 19 -21 0 -9 37 -67 51 -79 3 -3 36 -47 74 -98 38 -51 72 -89 76 -85 5 5 10 67 11 138 l3 130 65 0 65 0 -2 -190 c0 -104 -2 -212 -2 -240 -1 -27 1 -89 5 -137 5 -86 5 -87 -19 -93 -13 -4 -43 -5 -68 -3 l-44 3 -5 65 c-5 60 -10 72 -60 141 -30 42 -59 84 -65 93 -5 10 -19 18 -30 19 -19 2 -20 -4 -20 -158 l0 -160 -64 0 -64 0 2 264 2 263 -25 39 c-14 21 -26 43 -26 48 0 7 87 70 98 71 2 0 12 -5 23 -10z m1771 -2 c9 -7 36 -42 62 -78 120 -170 142 -199 154 -199 14 -1 16 19 16 164 l1 100 68 0 68 0 0 -330 0 -330 -68 0 -68 0 -5 70 c-5 69 -7 74 -70 158 -35 48 -70 87 -77 87 -10 0 -13 -34 -13 -149 0 -172 -1 -174 -82 -169 l-53 3 -3 276 c-2 261 -3 277 -22 294 -32 29 -24 57 23 87 50 31 49 31 69 16z m-5714 -65 l-3 -58 -108 -3 c-74 -2 -109 -7 -112 -15 -10 -29 -13 -79 -6 -105 7 -26 9 -27 97 -32 l89 -5 3 -58 3 -57 -83 5 c-46 4 -88 2 -95 -2 -14 -10 -23 -127 -12 -145 6 -9 43 -14 120 -15 61 -1 114 -5 117 -7 2 -3 7 -25 9 -48 8 -67 3 -69 -208 -66 l-183 3 3 127 c3 119 2 127 -18 140 -30 19 -31 112 0 128 19 11 20 20 19 133 -1 67 -1 125 -1 130 1 4 84 7 186 7 l186 0 -3 -57z m893 -270 c0 -178 -1 -328 -1 -333 0 -7 -25 -10 -67 -8 l-68 3 -3 320 c-1 176 0 326 3 333 3 9 23 12 70 10 l66 -3 0 -322z m567 270 c3 -60 2 -61 -108 -65 l-65 -3 0 -270 0 -270 -70 0 -70 0 0 270 0 270 -65 3 c-108 4 -110 5 -110 61 0 26 3 51 7 55 4 3 113 5 242 4 l236 -3 3 -52z m477 -3 l0 -55 -113 -3 -113 -3 3 -72 3 -72 89 -3 c50 -2 96 -8 103 -14 9 -7 13 -28 11 -57 l-3 -46 -100 0 -100 0 -3 -74 c-2 -53 1 -77 10 -82 7 -5 63 -9 124 -9 123 0 124 -1 124 -64 0 -18 -5 -37 -12 -44 -17 -17 -374 -17 -385 1 -4 6 -11 68 -15 137 -4 69 -10 149 -14 178 -4 35 -2 57 6 67 8 10 12 53 11 128 -1 63 1 121 5 131 6 15 25 16 188 14 l181 -3 0 -55z m480 41 c49 -22 68 -44 85 -98 22 -72 3 -153 -55 -232 -17 -23 -23 -41 -19 -55 9 -28 91 -161 110 -176 29 -25 16 -49 -40 -77 -64 -31 -73 -27 -108 46 -64 129 -125 221 -150 221 -4 0 -9 -62 -10 -137 l-3 -138 -61 -3 c-75 -4 -88 8 -73 62 6 23 9 146 7 322 l-3 284 140 0 c114 0 147 -4 180 -19z m558 5 c48 -20 75 -56 92 -118 12 -47 12 -62 0 -101 -18 -60 -32 -86 -64 -120 l-26 -28 30 -57 c17 -31 47 -82 67 -113 21 -31 38 -61 38 -66 0 -13 -81 -63 -102 -63 -11 0 -27 18 -43 51 -62 122 -154 261 -167 253 -6 -4 -9 -62 -8 -138 1 -72 2 -137 1 -143 -1 -9 -21 -13 -66 -13 -60 0 -66 2 -77 25 -8 19 -8 35 0 64 14 46 16 457 3 515 -16 66 -15 66 145 66 100 0 155 -4 177 -14z m583 3 c4 -6 10 -25 14 -43 8 -33 51 -186 75 -271 27 -95 64 -203 85 -254 12 -28 20 -57 17 -65 -6 -14 -49 -26 -106 -29 -34 -2 -34 -1 -47 53 -22 100 -32 132 -44 144 -13 13 -156 14 -170 0 -9 -9 -42 -116 -55 -178 -5 -25 -9 -28 -38 -23 -79 14 -99 20 -104 33 -2 7 7 43 22 81 23 58 26 72 16 98 -21 59 -8 125 24 125 28 0 44 37 105 244 11 38 25 75 31 83 14 17 165 18 175 2z m1272 -46 l-3 -58 -101 -3 -102 -3 -7 -45 c-3 -25 -3 -58 0 -74 l7 -30 89 0 89 0 0 -59 0 -59 -82 5 c-97 7 -108 -2 -108 -82 0 -80 7 -84 135 -87 l110 -3 0 -55 0 -55 -184 -3 c-105 -1 -189 2 -194 7 -5 5 -9 66 -8 135 2 106 0 127 -13 132 -22 8 -22 106 -1 124 12 10 15 39 15 141 l0 129 180 0 181 0 -3 -57z m535 -53 c15 -58 32 -123 37 -145 13 -59 88 -285 106 -320 9 -17 14 -41 13 -55 -3 -19 -13 -26 -54 -37 -77 -20 -83 -18 -90 25 -4 20 -15 67 -26 103 -21 75 -27 79 -117 79 -73 0 -92 -21 -117 -132 -17 -75 -23 -88 -40 -88 -35 0 -109 26 -113 40 -3 7 6 44 19 82 19 57 21 74 12 101 -6 18 -10 43 -8 57 2 14 4 31 4 37 1 7 16 19 34 27 36 14 31 3 94 211 9 28 23 67 31 88 l15 38 86 -3 85 -3 29 -105z m1702 94 c11 -12 15 -30 13 -63 l-3 -46 -50 4 c-27 2 -58 7 -68 13 -25 13 -84 -7 -120 -41 -60 -55 -71 -115 -40 -212 20 -61 111 -163 157 -175 45 -11 56 0 56 55 0 56 -9 66 -60 66 l-35 0 0 55 0 55 110 3 110 3 -1 -183 0 -183 -110 0 c-106 0 -111 1 -170 35 -79 46 -94 57 -130 105 -43 55 -53 76 -75 156 -23 84 -24 115 -3 185 20 70 67 130 124 160 40 21 58 24 162 24 94 0 120 -3 133 -16z m534 -4 c66 -29 81 -59 81 -160 0 -87 -11 -118 -60 -173 l-25 -28 30 -57 c16 -31 49 -84 73 -117 48 -67 50 -58 -29 -109 -47 -30 -61 -22 -98 57 -34 72 -131 219 -146 221 -6 1 -11 -54 -13 -142 l-3 -143 -67 3 -67 3 -3 320 c-1 176 0 325 3 332 3 10 40 13 140 13 115 0 144 -3 184 -20z m379 -295 c1 -170 0 -320 -3 -333 -5 -21 -10 -23 -71 -20 l-66 3 -1 333 -2 333 70 -3 70 -3 3 -310z m264 55 c-4 -206 -2 -263 8 -275 11 -13 32 -16 108 -14 106 3 122 -6 122 -67 0 -52 -11 -55 -201 -52 l-174 3 3 40 c12 142 12 495 1 542 -18 76 -12 83 70 83 l69 0 -6 -260z m488 -15 l5 -270 103 -3 103 -3 -3 -57 -3 -57 -169 -3 c-93 -1 -173 1 -178 6 -7 7 -13 496 -8 652 0 7 27 10 73 8 l72 -3 5 -270z"/>
    <path d="M3900 7345 c0 -195 1 -205 20 -215 41 -22 134 10 166 57 28 41 25 153 -5 211 -29 57 -129 152 -158 152 l-23 0 0 -205z"/>
    <path d="M5857 7543 c-4 -3 -7 -37 -7 -75 0 -65 1 -68 24 -68 14 0 28 5 31 11 4 6 14 8 22 4 9 -3 26 2 39 10 30 20 34 83 6 108 -19 17 -102 24 -115 10z"/>
    <path d="M6410 7470 c0 -85 7 -95 46 -65 10 8 32 15 47 15 23 0 31 7 43 37 15 34 14 38 -4 62 -16 22 -28 26 -76 29 l-56 3 0 -81z"/>
    <path d="M7077 7483 c-2 -5 -12 -33 -22 -64 -24 -73 -17 -91 32 -87 47 4 51 19 27 94 -17 53 -29 72 -37 57z"/>
    <path d="M8847 7483 c-4 -3 -7 -17 -7 -30 0 -13 -7 -40 -15 -60 -18 -43 -7 -63 35 -63 47 0 54 20 31 86 -22 62 -33 79 -44 67z"/>
    <path d="M11037 7543 c-4 -3 -7 -39 -7 -80 0 -79 6 -86 48 -57 12 8 31 13 41 9 41 -13 67 68 35 113 -12 17 -25 22 -63 22 -26 0 -51 -3 -54 -7z"/>
  </g>
</svg>