<?xml version="1.0" encoding="utf-8"?>
<svg version="1.0" xmlns="http://www.w3.org/2000/svg" width="4002.000000pt" height="996.000000pt" viewBox="0 0 4002.000000 996.000000" preserveAspectRatio="xMidYMid meet">
  <g transform="matrix(0.318783, 0, 0, -0.301945, -129.520218, 3021.117432)" fill="#d73737" stroke="none" style="">
    <path d="M5377 9920 c-9 -22 -17 -54 -17 -71 0 -17 -4 -38 -9 -48 -5 -9 -14 -46 -20 -82 -5 -35 -14 -82 -20 -104 -5 -22 -17 -76 -26 -120 -9 -44 -23 -105 -30 -135 -8 -30 -16 -73 -19 -95 -3 -22 -12 -71 -21 -110 -9 -38 -22 -101 -30 -140 -8 -38 -21 -99 -29 -135 -8 -36 -20 -90 -26 -120 -6 -30 -18 -88 -26 -127 -20 -97 -40 -97 -88 0 -12 23 -33 60 -47 82 -14 22 -42 70 -62 107 -50 94 -60 111 -73 128 -6 8 -29 47 -49 85 -49 90 -60 109 -100 175 -18 30 -46 80 -61 110 -14 30 -29 57 -33 60 -3 3 -16 25 -29 50 -13 25 -39 70 -57 100 -19 30 -41 69 -49 85 -19 38 -73 133 -94 165 -9 14 -27 45 -40 70 -40 78 -27 75 -315 74 l-258 -1 -92 -87 c-51 -48 -165 -158 -254 -244 -216 -210 -450 -435 -668 -643 -338 -322 -486 -464 -638 -610 -84 -80 -231 -221 -327 -313 -96 -92 -245 -234 -330 -316 -85 -82 -234 -224 -330 -316 -96 -92 -246 -235 -332 -318 -86 -83 -184 -175 -217 -205 -45 -40 -58 -57 -51 -66 8 -10 1313 -13 6138 -14 3370 -1 6135 1 6145 5 16 6 17 43 17 528 0 393 -3 525 -12 534 -9 9 -251 12 -1026 12 l-1014 0 -32 33 c-17 18 -49 55 -71 81 -22 26 -59 68 -81 94 -23 26 -63 72 -88 102 -92 109 -116 137 -208 240 -51 58 -111 128 -133 155 -22 27 -62 74 -90 105 -27 31 -68 78 -90 105 -22 26 -71 84 -110 128 -38 43 -77 90 -86 104 -9 13 -31 38 -49 56 -46 45 -62 97 -29 97 5 0 28 12 52 27 23 15 101 56 172 92 72 35 137 70 145 76 8 7 87 50 175 95 88 45 221 114 295 152 74 39 194 101 265 137 72 36 141 74 155 83 14 9 59 34 100 55 43 22 76 46 78 56 3 16 -21 17 -377 17 -299 0 -381 -3 -381 -13 0 -6 -23 -23 -51 -35 -28 -13 -70 -37 -94 -53 -23 -16 -46 -29 -50 -29 -12 0 -199 -93 -270 -134 -38 -23 -146 -79 -238 -126 -435 -220 -505 -256 -518 -267 -8 -6 -100 -55 -204 -108 -105 -53 -220 -112 -258 -131 -73 -38 -93 -37 -82 5 3 14 12 58 19 96 8 39 17 81 20 95 6 25 31 138 46 215 4 22 13 56 19 75 6 19 11 54 11 77 0 23 4 44 9 48 5 3 13 31 17 63 3 31 10 62 15 68 5 6 12 43 15 82 l7 72 -275 0 -275 0 -12 -57 c-7 -32 -17 -76 -22 -98 -11 -45 -36 -164 -49 -239 -9 -45 -33 -86 -51 -86 -4 0 -10 18 -14 40 -4 22 -22 62 -41 88 -19 26 -38 57 -43 69 -6 11 -22 29 -36 40 -15 10 -42 30 -60 46 -18 15 -58 39 -89 53 -30 14 -58 30 -61 35 -4 5 -16 9 -29 9 -12 0 -26 4 -32 9 -17 16 -148 44 -227 48 -63 4 -80 8 -90 24 -12 19 -36 19 -997 19 l-985 0 -18 -40z m1960 -350 c102 -24 191 -76 225 -130 25 -42 25 -169 1 -208 -52 -79 -155 -142 -270 -164 -24 -4 -62 -11 -85 -15 -24 -5 -360 -6 -748 -3 -670 5 -705 6 -708 23 -2 10 0 26 4 35 8 18 25 94 67 300 14 67 32 134 41 147 l15 24 705 1 c485 0 719 -3 753 -10z m-3350 -267 c7 -16 28 -57 49 -93 20 -36 45 -83 57 -105 11 -22 30 -53 41 -70 12 -16 32 -52 45 -80 14 -27 27 -52 30 -55 7 -6 19 -27 69 -122 21 -40 50 -91 63 -113 34 -54 52 -102 44 -114 -4 -8 -200 -11 -626 -11 -598 0 -619 1 -619 19 0 10 20 36 45 57 25 22 110 102 189 179 186 180 435 419 506 484 63 58 90 64 107 24z m4035 -335 c-14 -47 -43 -173 -53 -232 -5 -28 -15 -85 -23 -126 -9 -41 -20 -102 -26 -135 -6 -33 -15 -68 -20 -77 -6 -10 -13 -43 -16 -75 -4 -32 -11 -67 -17 -77 -5 -11 -13 -45 -18 -75 -11 -79 -39 -195 -48 -204 -15 -15 -36 4 -76 69 -22 36 -48 78 -57 92 -10 15 -22 36 -28 47 -6 11 -19 34 -30 50 -11 17 -23 37 -27 45 -4 8 -26 42 -50 76 -24 34 -43 64 -43 67 0 3 -13 26 -30 50 -16 25 -30 48 -30 52 0 4 -13 24 -30 45 -16 21 -30 41 -30 45 0 4 -10 21 -22 37 -27 39 -15 62 33 65 75 4 205 23 224 32 11 5 34 12 50 14 92 15 245 109 295 182 17 25 35 45 39 45 5 0 11 10 15 22 4 17 8 20 17 11 8 -8 8 -21 1 -45z m1261 -193 c53 -60 114 -130 136 -155 44 -49 110 -126 181 -210 25 -29 60 -68 78 -87 17 -18 32 -37 32 -41 0 -4 20 -28 45 -52 25 -24 45 -48 45 -53 0 -5 18 -27 39 -50 122 -131 202 -229 197 -242 -5 -13 -116 -15 -834 -15 -652 0 -832 3 -840 13 -7 8 -7 27 -1 57 5 25 15 77 23 116 7 39 16 76 19 81 4 5 11 34 16 64 49 269 63 323 85 341 12 10 86 50 166 90 80 39 155 79 167 88 20 15 289 151 323 163 8 3 18 5 22 4 3 -1 49 -51 101 -112z m-2587 -112 c17 -19 105 -154 184 -282 25 -40 64 -100 88 -132 23 -33 42 -63 42 -69 0 -5 34 -59 75 -121 41 -61 75 -114 75 -117 0 -3 7 -13 16 -23 9 -10 14 -25 11 -34 -6 -13 -99 -15 -835 -15 -568 0 -831 3 -839 11 -10 10 -10 16 22 159 9 41 25 118 35 170 11 52 26 124 35 160 8 36 20 92 26 124 5 33 13 64 16 69 3 6 7 25 9 44 1 19 10 43 20 54 16 18 37 19 511 19 457 0 494 -1 509 -17z m-2021 -588 c12 -22 38 -71 59 -108 21 -38 35 -75 32 -83 -5 -12 -177 -14 -1165 -14 -860 0 -1162 3 -1167 11 -7 11 96 116 197 201 l44 37 989 -2 989 -2 22 -40z m-2013 -491 c20 -33 58 -86 84 -118 l47 -60 34 40 c19 21 66 85 104 142 39 56 72 102 74 102 17 0 105 -65 105 -77 0 -8 -14 -34 -31 -57 l-30 -43 4 -229 c3 -126 6 -240 8 -254 4 -25 3 -25 -66 -25 l-70 0 -3 153 c-3 178 -7 183 -74 92 -23 -33 -48 -60 -55 -60 -10 0 -34 28 -97 115 -7 11 -18 17 -22 12 -4 -4 -7 -68 -5 -142 3 -166 -1 -175 -73 -175 -40 0 -55 4 -60 16 -3 9 -6 127 -6 263 l0 248 -25 38 c-14 20 -23 44 -20 53 3 10 26 29 52 44 l48 28 20 -24 c11 -13 37 -50 57 -82z m1379 61 c79 -53 134 -116 175 -200 56 -118 42 -295 -29 -366 -55 -55 -108 -71 -263 -76 -105 -4 -143 -3 -149 7 -4 6 -8 156 -8 333 l-1 322 82 0 c51 0 86 5 94 13 18 18 24 16 99 -33z m3520 35 c10 -6 19 -15 19 -21 0 -9 37 -67 51 -79 3 -3 36 -47 74 -98 38 -51 72 -89 76 -85 5 5 10 67 11 138 l3 130 65 0 65 0 -2 -190 c0 -104 -2 -212 -2 -240 -1 -27 1 -89 5 -137 5 -86 5 -87 -19 -93 -13 -4 -43 -5 -68 -3 l-44 3 -5 65 c-5 60 -10 72 -60 141 -30 42 -59 84 -65 93 -5 10 -19 18 -30 19 -19 2 -20 -4 -20 -158 l0 -160 -64 0 -64 0 2 264 2 263 -25 39 c-14 21 -26 43 -26 48 0 7 87 70 98 71 2 0 12 -5 23 -10z m1771 -2 c9 -7 36 -42 62 -78 120 -170 142 -199 154 -199 14 -1 16 19 16 164 l1 100 68 0 68 0 0 -330 0 -330 -68 0 -68 0 -5 70 c-5 69 -7 74 -70 158 -35 48 -70 87 -77 87 -10 0 -13 -34 -13 -149 0 -172 -1 -174 -82 -169 l-53 3 -3 276 c-2 261 -3 277 -22 294 -32 29 -24 57 23 87 50 31 49 31 69 16z m-5714 -65 l-3 -58 -108 -3 c-74 -2 -109 -7 -112 -15 -10 -29 -13 -79 -6 -105 7 -26 9 -27 97 -32 l89 -5 3 -58 3 -57 -83 5 c-46 4 -88 2 -95 -2 -14 -10 -23 -127 -12 -145 6 -9 43 -14 120 -15 61 -1 114 -5 117 -7 2 -3 7 -25 9 -48 8 -67 3 -69 -208 -66 l-183 3 3 127 c3 119 2 127 -18 140 -30 19 -31 112 0 128 19 11 20 20 19 133 -1 67 -1 125 -1 130 1 4 84 7 186 7 l186 0 -3 -57z m893 -270 c0 -178 -1 -328 -1 -333 0 -7 -25 -10 -67 -8 l-68 3 -3 320 c-1 176 0 326 3 333 3 9 23 12 70 10 l66 -3 0 -322z m567 270 c3 -60 2 -61 -108 -65 l-65 -3 0 -270 0 -270 -70 0 -70 0 0 270 0 270 -65 3 c-108 4 -110 5 -110 61 0 26 3 51 7 55 4 3 113 5 242 4 l236 -3 3 -52z m477 -3 l0 -55 -113 -3 -113 -3 3 -72 3 -72 89 -3 c50 -2 96 -8 103 -14 9 -7 13 -28 11 -57 l-3 -46 -100 0 -100 0 -3 -74 c-2 -53 1 -77 10 -82 7 -5 63 -9 124 -9 123 0 124 -1 124 -64 0 -18 -5 -37 -12 -44 -17 -17 -374 -17 -385 1 -4 6 -11 68 -15 137 -4 69 -10 149 -14 178 -4 35 -2 57 6 67 8 10 12 53 11 128 -1 63 1 121 5 131 6 15 25 16 188 14 l181 -3 0 -55z m480 41 c49 -22 68 -44 85 -98 22 -72 3 -153 -55 -232 -17 -23 -23 -41 -19 -55 9 -28 91 -161 110 -176 29 -25 16 -49 -40 -77 -64 -31 -73 -27 -108 46 -64 129 -125 221 -150 221 -4 0 -9 -62 -10 -137 l-3 -138 -61 -3 c-75 -4 -88 8 -73 62 6 23 9 146 7 322 l-3 284 140 0 c114 0 147 -4 180 -19z m558 5 c48 -20 75 -56 92 -118 12 -47 12 -62 0 -101 -18 -60 -32 -86 -64 -120 l-26 -28 30 -57 c17 -31 47 -82 67 -113 21 -31 38 -61 38 -66 0 -13 -81 -63 -102 -63 -11 0 -27 18 -43 51 -62 122 -154 261 -167 253 -6 -4 -9 -62 -8 -138 1 -72 2 -137 1 -143 -1 -9 -21 -13 -66 -13 -60 0 -66 2 -77 25 -8 19 -8 35 0 64 14 46 16 457 3 515 -16 66 -15 66 145 66 100 0 155 -4 177 -14z m583 3 c4 -6 10 -25 14 -43 8 -33 51 -186 75 -271 27 -95 64 -203 85 -254 12 -28 20 -57 17 -65 -6 -14 -49 -26 -106 -29 -34 -2 -34 -1 -47 53 -22 100 -32 132 -44 144 -13 13 -156 14 -170 0 -9 -9 -42 -116 -55 -178 -5 -25 -9 -28 -38 -23 -79 14 -99 20 -104 33 -2 7 7 43 22 81 23 58 26 72 16 98 -21 59 -8 125 24 125 28 0 44 37 105 244 11 38 25 75 31 83 14 17 165 18 175 2z m1272 -46 l-3 -58 -101 -3 -102 -3 -7 -45 c-3 -25 -3 -58 0 -74 l7 -30 89 0 89 0 0 -59 0 -59 -82 5 c-97 7 -108 -2 -108 -82 0 -80 7 -84 135 -87 l110 -3 0 -55 0 -55 -184 -3 c-105 -1 -189 2 -194 7 -5 5 -9 66 -8 135 2 106 0 127 -13 132 -22 8 -22 106 -1 124 12 10 15 39 15 141 l0 129 180 0 181 0 -3 -57z m535 -53 c15 -58 32 -123 37 -145 13 -59 88 -285 106 -320 9 -17 14 -41 13 -55 -3 -19 -13 -26 -54 -37 -77 -20 -83 -18 -90 25 -4 20 -15 67 -26 103 -21 75 -27 79 -117 79 -73 0 -92 -21 -117 -132 -17 -75 -23 -88 -40 -88 -35 0 -109 26 -113 40 -3 7 6 44 19 82 19 57 21 74 12 101 -6 18 -10 43 -8 57 2 14 4 31 4 37 1 7 16 19 34 27 36 14 31 3 94 211 9 28 23 67 31 88 l15 38 86 -3 85 -3 29 -105z m1702 94 c11 -12 15 -30 13 -63 l-3 -46 -50 4 c-27 2 -58 7 -68 13 -25 13 -84 -7 -120 -41 -60 -55 -71 -115 -40 -212 20 -61 111 -163 157 -175 45 -11 56 0 56 55 0 56 -9 66 -60 66 l-35 0 0 55 0 55 110 3 110 3 -1 -183 0 -183 -110 0 c-106 0 -111 1 -170 35 -79 46 -94 57 -130 105 -43 55 -53 76 -75 156 -23 84 -24 115 -3 185 20 70 67 130 124 160 40 21 58 24 162 24 94 0 120 -3 133 -16z m534 -4 c66 -29 81 -59 81 -160 0 -87 -11 -118 -60 -173 l-25 -28 30 -57 c16 -31 49 -84 73 -117 48 -67 50 -58 -29 -109 -47 -30 -61 -22 -98 57 -34 72 -131 219 -146 221 -6 1 -11 -54 -13 -142 l-3 -143 -67 3 -67 3 -3 320 c-1 176 0 325 3 332 3 10 40 13 140 13 115 0 144 -3 184 -20z m379 -295 c1 -170 0 -320 -3 -333 -5 -21 -10 -23 -71 -20 l-66 3 -1 333 -2 333 70 -3 70 -3 3 -310z m264 55 c-4 -206 -2 -263 8 -275 11 -13 32 -16 108 -14 106 3 122 -6 122 -67 0 -52 -11 -55 -201 -52 l-174 3 3 40 c12 142 12 495 1 542 -18 76 -12 83 70 83 l69 0 -6 -260z m488 -15 l5 -270 103 -3 103 -3 -3 -57 -3 -57 -169 -3 c-93 -1 -173 1 -178 6 -7 7 -13 496 -8 652 0 7 27 10 73 8 l72 -3 5 -270z" style="stroke: rgb(0, 0, 0); paint-order: stroke; stroke-miterlimit: 7.14; fill-rule: evenodd; fill: rgb(197, 27, 27);"/>
    <path d="M3900 7345 c0 -195 1 -205 20 -215 41 -22 134 10 166 57 28 41 25 153 -5 211 -29 57 -129 152 -158 152 l-23 0 0 -205z" style="stroke: rgb(0, 0, 0); paint-order: stroke; stroke-miterlimit: 7.14; fill-rule: evenodd; fill: rgb(197, 27, 27);"/>
    <path d="M5857 7543 c-4 -3 -7 -37 -7 -75 0 -65 1 -68 24 -68 14 0 28 5 31 11 4 6 14 8 22 4 9 -3 26 2 39 10 30 20 34 83 6 108 -19 17 -102 24 -115 10z" style="stroke: rgb(0, 0, 0); paint-order: stroke; stroke-miterlimit: 7.14; fill-rule: evenodd; fill: rgb(197, 27, 27);"/>
    <path d="M6410 7470 c0 -85 7 -95 46 -65 10 8 32 15 47 15 23 0 31 7 43 37 15 34 14 38 -4 62 -16 22 -28 26 -76 29 l-56 3 0 -81z" style="stroke: rgb(0, 0, 0); paint-order: stroke; stroke-miterlimit: 7.14; fill-rule: evenodd; fill: rgb(197, 27, 27);"/>
    <path d="M7077 7483 c-2 -5 -12 -33 -22 -64 -24 -73 -17 -91 32 -87 47 4 51 19 27 94 -17 53 -29 72 -37 57z" style="stroke: rgb(0, 0, 0); paint-order: stroke; stroke-miterlimit: 7.14; fill-rule: evenodd; fill: rgb(197, 27, 27);"/>
    <path d="M8847 7483 c-4 -3 -7 -17 -7 -30 0 -13 -7 -40 -15 -60 -18 -43 -7 -63 35 -63 47 0 54 20 31 86 -22 62 -33 79 -44 67z" style="stroke: rgb(0, 0, 0); paint-order: stroke; stroke-miterlimit: 7.14; fill-rule: evenodd; fill: rgb(197, 27, 27);"/>
    <path d="M11037 7543 c-4 -3 -7 -39 -7 -80 0 -79 6 -86 48 -57 12 8 31 13 41 9 41 -13 67 68 35 113 -12 17 -25 22 -63 22 -26 0 -51 -3 -54 -7z" style="stroke: rgb(0, 0, 0); paint-order: stroke; stroke-miterlimit: 7.14; fill-rule: evenodd; fill: rgb(197, 27, 27);"/>
  </g>
  <g transform="matrix(0.318783, 0, 0, -0.301945, -132.275665, 3016.865479)" fill="#d73737" stroke="none" style="">
    <path d="M 11772 7870 C 11772 7870 2559.606 7898.453 2474.606 7816.453 C 2389.606 7734.453 2259.134 6774.731 2297.226 6785.941 C 2321.157 6792.984 12783 6792 12793 6796 C 12809 6802 12810 6839 12810 7324 C 12810 7717 12807 7849 12798 7858 C 12789 7867 12547 7870 11772 7870 Z M 2662 7584 C 2682 7551 2720 7498 2746 7466 L 2793 7406 L 2827 7446 C 2846 7467 2893 7531 2931 7588 C 2970 7644 3003 7690 3005 7690 C 3022 7690 3110 7625 3110 7613 C 3110 7605 3096 7579 3079 7556 L 3049 7513 L 3053 7284 C 3056 7158 3059 7044 3061 7030 C 3065 7005 3064 7005 2995 7005 L 2925 7005 L 2922 7158 C 2919 7336 2915 7341 2848 7250 C 2825 7217 2800 7190 2793 7190 C 2783 7190 2759 7218 2696 7305 C 2689 7316 2678 7322 2674 7317 C 2670 7313 2667 7249 2669 7175 C 2672 7009 2668 7000 2596 7000 C 2556 7000 2541 7004 2536 7016 C 2533 7025 2530 7143 2530 7279 L 2530 7527 L 2505 7565 C 2491 7585 2482 7609 2485 7618 C 2488 7628 2511 7647 2537 7662 L 2585 7690 L 2605 7666 C 2616 7653 2642 7616 2662 7584 Z M 4041 7645 C 4120 7592 4175 7529 4216 7445 C 4272 7327 4258 7150 4187 7079 C 4132 7024 4079 7008 3924 7003 C 3819 6999 3781 7000 3775 7010 C 3771 7016 3767 7166 3767 7343 L 3766 7665 L 3848 7665 C 3899 7665 3934 7670 3942 7678 C 3960 7696 3966 7694 4041 7645 Z M 7561 7680 C 7571 7674 7580 7665 7580 7659 C 7580 7650 7617 7592 7631 7580 C 7634 7577 7667 7533 7705 7482 C 7743 7431 7777 7393 7781 7397 C 7786 7402 7791 7464 7792 7535 L 7795 7665 L 7860 7665 L 7925 7665 L 7923 7475 C 7923 7371 7921 7263 7921 7235 C 7920 7208 7922 7146 7926 7098 C 7931 7012 7931 7011 7907 7005 C 7894 7001 7864 7000 7839 7002 L 7795 7005 L 7790 7070 C 7785 7130 7780 7142 7730 7211 C 7700 7253 7671 7295 7665 7304 C 7660 7314 7646 7322 7635 7323 C 7616 7325 7615 7319 7615 7165 L 7615 7005 L 7551 7005 L 7487 7005 L 7489 7269 L 7491 7532 L 7466 7571 C 7452 7592 7440 7614 7440 7619 C 7440 7626 7527 7689 7538 7690 C 7540 7690 7550 7685 7561 7680 Z M 9332 7678 C 9341 7671 9368 7636 9394 7600 C 9514 7430 9536 7401 9548 7401 C 9562 7400 9564 7420 9564 7565 L 9565 7665 L 9633 7665 L 9701 7665 L 9701 7335 L 9701 7005 L 9633 7005 L 9565 7005 L 9560 7075 C 9555 7144 9553 7149 9490 7233 C 9455 7281 9420 7320 9413 7320 C 9403 7320 9400 7286 9400 7171 C 9400 6999 9399 6997 9318 7002 L 9265 7005 L 9262 7281 C 9260 7542 9259 7558 9240 7575 C 9208 7604 9216 7632 9263 7662 C 9313 7693 9312 7693 9332 7678 Z M 3618 7613 L 3615 7555 L 3507 7552 C 3433 7550 3398 7545 3395 7537 C 3385 7508 3382 7458 3389 7432 C 3396 7406 3398 7405 3486 7400 L 3575 7395 L 3578 7337 L 3581 7280 L 3498 7285 C 3452 7289 3410 7287 3403 7283 C 3389 7273 3380 7156 3391 7138 C 3397 7129 3434 7124 3511 7123 C 3572 7122 3625 7118 3628 7116 C 3630 7113 3635 7091 3637 7068 C 3645 7001 3640 6999 3429 7002 L 3246 7005 L 3249 7132 C 3252 7251 3251 7259 3231 7272 C 3201 7291 3200 7384 3231 7400 C 3250 7411 3251 7420 3250 7533 C 3249 7600 3249 7658 3249 7663 C 3250 7667 3333 7670 3435 7670 L 3621 7670 L 3618 7613 Z M 4511 7343 C 4511 7165 4510 7015 4510 7010 C 4510 7003 4485 7000 4443 7002 L 4375 7005 L 4372 7325 C 4371 7501 4372 7651 4375 7658 C 4378 7667 4398 7670 4445 7668 L 4511 7665 L 4511 7343 Z M 5078 7613 C 5081 7553 5080 7552 4970 7548 L 4905 7545 L 4905 7275 L 4905 7005 L 4835 7005 L 4765 7005 L 4765 7275 L 4765 7545 L 4700 7548 C 4592 7552 4590 7553 4590 7609 C 4590 7635 4593 7660 4597 7664 C 4601 7667 4710 7669 4839 7668 L 5075 7665 L 5078 7613 Z M 5555 7610 L 5555 7555 L 5442 7552 L 5329 7549 L 5332 7477 L 5335 7405 L 5424 7402 C 5474 7400 5520 7394 5527 7388 C 5536 7381 5540 7360 5538 7331 L 5535 7285 L 5435 7285 L 5335 7285 L 5332 7211 C 5330 7158 5333 7134 5342 7129 C 5349 7124 5405 7120 5466 7120 C 5589 7120 5590 7119 5590 7056 C 5590 7038 5585 7019 5578 7012 C 5561 6995 5204 6995 5193 7013 C 5189 7019 5182 7081 5178 7150 C 5174 7219 5168 7299 5164 7328 C 5160 7363 5162 7385 5170 7395 C 5178 7405 5182 7448 5181 7523 C 5180 7586 5182 7644 5186 7654 C 5192 7669 5211 7670 5374 7668 L 5555 7665 L 5555 7610 Z M 6035 7651 C 6084 7629 6103 7607 6120 7553 C 6142 7481 6123 7400 6065 7321 C 6048 7298 6042 7280 6046 7266 C 6055 7238 6137 7105 6156 7090 C 6185 7065 6172 7041 6116 7013 C 6052 6982 6043 6986 6008 7059 C 5944 7188 5883 7280 5858 7280 C 5854 7280 5849 7218 5848 7143 L 5845 7005 L 5784 7002 C 5709 6998 5696 7010 5711 7064 C 5717 7087 5720 7210 5718 7386 L 5715 7670 L 5855 7670 C 5969 7670 6002 7666 6035 7651 Z M 6593 7656 C 6641 7636 6668 7600 6685 7538 C 6697 7491 6697 7476 6685 7437 C 6667 7377 6653 7351 6621 7317 L 6595 7289 L 6625 7232 C 6642 7201 6672 7150 6692 7119 C 6713 7088 6730 7058 6730 7053 C 6730 7040 6649 6990 6628 6990 C 6617 6990 6601 7008 6585 7041 C 6523 7163 6431 7302 6418 7294 C 6412 7290 6409 7232 6410 7156 C 6411 7084 6412 7019 6411 7013 C 6410 7004 6390 7000 6345 7000 C 6285 7000 6279 7002 6268 7025 C 6260 7044 6260 7060 6268 7089 C 6282 7135 6284 7546 6271 7604 C 6255 7670 6256 7670 6416 7670 C 6516 7670 6571 7666 6593 7656 Z M 7176 7659 C 7180 7653 7186 7634 7190 7616 C 7198 7583 7241 7430 7265 7345 C 7292 7250 7329 7142 7350 7091 C 7362 7063 7370 7034 7367 7026 C 7361 7012 7318 7000 7261 6997 C 7227 6995 7227 6996 7214 7050 C 7192 7150 7182 7182 7170 7194 C 7157 7207 7014 7208 7000 7194 C 6991 7185 6958 7078 6945 7016 C 6940 6991 6936 6988 6907 6993 C 6828 7007 6808 7013 6803 7026 C 6801 7033 6810 7069 6825 7107 C 6848 7165 6851 7179 6841 7205 C 6820 7264 6833 7330 6865 7330 C 6893 7330 6909 7367 6970 7574 C 6981 7612 6995 7649 7001 7657 C 7015 7674 7166 7675 7176 7659 Z M 8448 7613 L 8445 7555 L 8344 7552 L 8242 7549 L 8235 7504 C 8232 7479 8232 7446 8235 7430 L 8242 7400 L 8331 7400 L 8420 7400 L 8420 7341 L 8420 7282 L 8338 7287 C 8241 7294 8230 7285 8230 7205 C 8230 7125 8237 7121 8365 7118 L 8475 7115 L 8475 7060 L 8475 7005 L 8291 7002 C 8186 7001 8102 7004 8097 7009 C 8092 7014 8088 7075 8089 7144 C 8091 7250 8089 7271 8076 7276 C 8054 7284 8054 7382 8075 7400 C 8087 7410 8090 7439 8090 7541 L 8090 7670 L 8270 7670 L 8451 7670 L 8448 7613 Z M 8983 7560 C 8998 7502 9015 7437 9020 7415 C 9033 7356 9108 7130 9126 7095 C 9135 7078 9140 7054 9139 7040 C 9136 7021 9126 7014 9085 7003 C 9008 6983 9002 6985 8995 7028 C 8991 7048 8980 7095 8969 7131 C 8948 7206 8942 7210 8852 7210 C 8779 7210 8760 7189 8735 7078 C 8718 7003 8712 6990 8695 6990 C 8660 6990 8586 7016 8582 7030 C 8579 7037 8588 7074 8601 7112 C 8620 7169 8622 7186 8613 7213 C 8607 7231 8603 7256 8605 7270 C 8607 7284 8609 7301 8609 7307 C 8610 7314 8625 7326 8643 7334 C 8679 7348 8674 7337 8737 7545 C 8746 7573 8760 7612 8768 7633 L 8783 7671 L 8869 7668 L 8954 7665 L 8983 7560 Z M 10685 7654 C 10696 7642 10700 7624 10698 7591 L 10695 7545 L 10645 7549 C 10618 7551 10587 7556 10577 7562 C 10552 7575 10493 7555 10457 7521 C 10397 7466 10386 7406 10417 7309 C 10437 7248 10528 7146 10574 7134 C 10619 7123 10630 7134 10630 7189 C 10630 7245 10621 7255 10570 7255 L 10535 7255 L 10535 7310 L 10535 7365 L 10645 7368 L 10755 7371 L 10754 7188 L 10754 7005 L 10644 7005 C 10538 7005 10533 7006 10474 7040 C 10395 7086 10380 7097 10344 7145 C 10301 7200 10291 7221 10269 7301 C 10246 7385 10245 7416 10266 7486 C 10286 7556 10333 7616 10390 7646 C 10430 7667 10448 7670 10552 7670 C 10646 7670 10672 7667 10685 7654 Z M 11219 7650 C 11285 7621 11300 7591 11300 7490 C 11300 7403 11289 7372 11240 7317 L 11215 7289 L 11245 7232 C 11261 7201 11294 7148 11318 7115 C 11366 7048 11368 7057 11289 7006 C 11242 6976 11228 6984 11191 7063 C 11157 7135 11060 7282 11045 7284 C 11039 7285 11034 7230 11032 7142 L 11029 6999 L 10962 7002 L 10895 7005 L 10892 7325 C 10891 7501 10892 7650 10895 7657 C 10898 7667 10935 7670 11035 7670 C 11150 7670 11179 7667 11219 7650 Z M 11598 7355 C 11599 7185 11598 7035 11595 7022 C 11590 7001 11585 6999 11524 7002 L 11458 7005 L 11457 7338 L 11455 7671 L 11525 7668 L 11595 7665 L 11598 7355 Z M 11862 7410 C 11858 7204 11860 7147 11870 7135 C 11881 7122 11902 7119 11978 7121 C 12084 7124 12100 7115 12100 7054 C 12100 7002 12089 6999 11899 7002 L 11725 7005 L 11728 7045 C 11740 7187 11740 7540 11729 7587 C 11711 7663 11717 7670 11799 7670 L 11868 7670 L 11862 7410 Z M 12350 7395 L 12355 7125 L 12458 7122 L 12561 7119 L 12558 7062 L 12555 7005 L 12386 7002 C 12293 7001 12213 7003 12208 7008 C 12201 7015 12195 7504 12200 7660 C 12200 7667 12227 7670 12273 7668 L 12345 7665 L 12350 7395 Z" style="stroke: rgb(0, 0, 0); paint-order: stroke; stroke-miterlimit: 7.14; fill-rule: evenodd; fill: rgb(34, 27, 27);"/>
    <path d="M3900 7345 c0 -195 1 -205 20 -215 41 -22 134 10 166 57 28 41 25 153 -5 211 -29 57 -129 152 -158 152 l-23 0 0 -205z" style="stroke: rgb(0, 0, 0); paint-order: stroke; stroke-miterlimit: 7.14; fill-rule: evenodd; fill: rgb(34, 27, 27);"/>
    <path d="M5857 7543 c-4 -3 -7 -37 -7 -75 0 -65 1 -68 24 -68 14 0 28 5 31 11 4 6 14 8 22 4 9 -3 26 2 39 10 30 20 34 83 6 108 -19 17 -102 24 -115 10z" style="stroke: rgb(0, 0, 0); paint-order: stroke; stroke-miterlimit: 7.14; fill-rule: evenodd; fill: rgb(34, 27, 27);"/>
    <path d="M6410 7470 c0 -85 7 -95 46 -65 10 8 32 15 47 15 23 0 31 7 43 37 15 34 14 38 -4 62 -16 22 -28 26 -76 29 l-56 3 0 -81z" style="stroke: rgb(0, 0, 0); paint-order: stroke; stroke-miterlimit: 7.14; fill-rule: evenodd; fill: rgb(34, 27, 27);"/>
    <path d="M7077 7483 c-2 -5 -12 -33 -22 -64 -24 -73 -17 -91 32 -87 47 4 51 19 27 94 -17 53 -29 72 -37 57z" style="stroke: rgb(0, 0, 0); paint-order: stroke; stroke-miterlimit: 7.14; fill-rule: evenodd; fill: rgb(34, 27, 27);"/>
    <path d="M8847 7483 c-4 -3 -7 -17 -7 -30 0 -13 -7 -40 -15 -60 -18 -43 -7 -63 35 -63 47 0 54 20 31 86 -22 62 -33 79 -44 67z" style="stroke: rgb(0, 0, 0); paint-order: stroke; stroke-miterlimit: 7.14; fill-rule: evenodd; fill: rgb(34, 27, 27);"/>
    <path d="M11037 7543 c-4 -3 -7 -39 -7 -80 0 -79 6 -86 48 -57 12 8 31 13 41 9 41 -13 67 68 35 113 -12 17 -25 22 -63 22 -26 0 -51 -3 -54 -7z" style="stroke: rgb(0, 0, 0); paint-order: stroke; stroke-miterlimit: 7.14; fill-rule: evenodd; fill: rgb(34, 27, 27);"/>
  </g>
</svg>